# xmcd CD database file
#
# Track frame offsets:
#	150
#	30283
#	54115
#	78130
#	95695
#	119630
#	134158
#	148835
#
# Disc length: 2519 seconds
#
# Revision: 0
# Processed by: cddbd v1.5.1PL2 Copyright (c) Steve Scherf et al.
# Submitted via: CDex 1.51
#
DISCID=6a09d508
DTITLE=Tico-Alegre All Stars - Live At Carnegie Hall, Vol. 1
DYEAR=1974
DGENRE=Salsa
TTITLE0=Tito's Odyssey 
TTITLE1=Confusion 
TTITLE2=Boom Boom Lucumi 
TTITLE3=Chango
TTITLE4=Son Tus Celos 
TTITLE5=Si Yo Encontrara Un Amor 
TTITLE6=Sale Del Sol (Dormi Contigo)
TTITLE7=La Cosa - Alegre!
EXTD=YEAR: 1974
EXTT0=
EXTT1=
EXTT2=
EXTT3=
EXTT4=
EXTT5=
EXTT6=
EXTT7=
PLAYORDER=
